<svg  viewBox="0 0 307 222" fill="none" xmlns="http://www.w3.org/2000/svg">
<mask id="path-1-inside-1_24_1275" fill="white">
<path fill-rule="evenodd" clip-rule="evenodd" d="M0 0H307V217.681C304.239 217.681 302 219.615 302 222H5C5 219.615 2.76142 217.681 0 217.681V0Z"/>
</mask>
<path fill-rule="evenodd" clip-rule="evenodd" d="M0 0H307V217.681C304.239 217.681 302 219.615 302 222H5C5 219.615 2.76142 217.681 0 217.681V0Z" fill="white"/>
<path d="M307 0H307.5V-0.5H307V0ZM0 0V-0.5H-0.5V0H0ZM307 217.681V218.181H307.5V217.681H307ZM302 222V222.5H302.5V222H302ZM5 222H4.5V222.5H5V222ZM0 217.681H-0.5V218.181H0V217.681ZM307 -0.5H0V0.5H307V-0.5ZM307.5 217.681V0H306.5V217.681H307.5ZM302.5 222C302.5 219.957 304.444 218.181 307 218.181V217.181C304.034 217.181 301.5 219.272 301.5 222H302.5ZM5 222.5H302V221.5H5V222.5ZM0 218.181C2.5565 218.181 4.5 219.957 4.5 222H5.5C5.5 219.272 2.96635 217.181 0 217.181V218.181ZM-0.5 0V217.681H0.5V0H-0.5Z" fill="black" fill-opacity="0.3" mask="url(#path-1-inside-1_24_1275)"/>
</svg>
