<svg  viewBox="0 0 307 178" fill="none" xmlns="http://www.w3.org/2000/svg">
<mask id="path-1-inside-1_24_1277" fill="white">
<path fill-rule="evenodd" clip-rule="evenodd" d="M0 5C2.76142 5 5 2.76142 5 0H302C302 2.76142 304.239 5 307 5V178H0V5Z"/>
</mask>
<path fill-rule="evenodd" clip-rule="evenodd" d="M0 5C2.76142 5 5 2.76142 5 0H302C302 2.76142 304.239 5 307 5V178H0V5Z" fill="white"/>
<path d="M5 0V-0.5H4.5V0H5ZM0 5V4.5H-0.5V5H0ZM302 0H302.5V-0.5H302V0ZM307 5H307.5V4.5H307V5ZM307 178V178.5H307.5V178H307ZM0 178H-0.5V178.5H0V178ZM4.5 0C4.5 2.48528 2.48528 4.5 0 4.5V5.5C3.03757 5.5 5.5 3.03757 5.5 0H4.5ZM302 -0.5H5V0.5H302V-0.5ZM307 4.5C304.515 4.5 302.5 2.48528 302.5 0H301.5C301.5 3.03757 303.962 5.5 307 5.5V4.5ZM307.5 178V5H306.5V178H307.5ZM0 178.5H307V177.5H0V178.5ZM-0.5 5V178H0.5V5H-0.5Z" fill="#B2B2B2" mask="url(#path-1-inside-1_24_1277)"/>
</svg>
