<svg width="17" height="17" viewBox="0 0 17 17" fill="none" xmlns="http://www.w3.org/2000/svg">
<g clip-path="url(#clip0_288_1567)">
<path d="M10.0575 8.51387L16.6769 1.89421C17.1077 1.46363 17.1077 0.767434 16.6769 0.336852C16.2463 -0.0937294 15.5502 -0.0937294 15.1196 0.336852L8.4999 6.95652L1.88044 0.336852C1.44966 -0.0937294 0.753669 -0.0937294 0.323088 0.336852C-0.107696 0.767434 -0.107696 1.46363 0.323088 1.89421L6.94255 8.51387L0.323088 15.1335C-0.107696 15.5641 -0.107696 16.2603 0.323088 16.6909C0.537673 16.9057 0.819819 17.0136 1.10176 17.0136C1.38371 17.0136 1.66566 16.9057 1.88044 16.6909L8.4999 10.0712L15.1196 16.6909C15.3344 16.9057 15.6163 17.0136 15.8982 17.0136C16.1802 17.0136 16.4621 16.9057 16.6769 16.6909C17.1077 16.2603 17.1077 15.5641 16.6769 15.1335L10.0575 8.51387Z" fill="black"/>
</g>
<defs>
<clipPath id="clip0_288_1567">
<rect width="17" height="17" fill="white"/>
</clipPath>
</defs>
</svg>
