<svg width="35" height="35" viewBox="0 0 35 35"  xmlns="http://www.w3.org/2000/svg">
<path d="M30.625 10.2083H4.37496C3.49996 10.2083 2.91663 9.62501 2.91663 8.75001C2.91663 7.87501 3.49996 7.29167 4.37496 7.29167H30.625C31.5 7.29167 32.0833 7.87501 32.0833 8.75001C32.0833 9.62501 31.5 10.2083 30.625 10.2083Z" />
<path d="M30.625 18.9583H4.37496C3.49996 18.9583 2.91663 18.375 2.91663 17.5C2.91663 16.625 3.49996 16.0417 4.37496 16.0417H30.625C31.5 16.0417 32.0833 16.625 32.0833 17.5C32.0833 18.375 31.5 18.9583 30.625 18.9583Z" />
<path d="M30.625 27.7083H4.37496C3.49996 27.7083 2.91663 27.125 2.91663 26.25C2.91663 25.375 3.49996 24.7917 4.37496 24.7917H30.625C31.5 24.7917 32.0833 25.375 32.0833 26.25C32.0833 27.125 31.5 27.7083 30.625 27.7083Z" />
</svg>
