<svg width="16" height="16" viewBox="0 0 16 16" fill="none" xmlns="http://www.w3.org/2000/svg">
<g clip-path="url(#clip0_279_1414)">
<path d="M12.9888 3.31063L13.993 2.30648C14.1761 2.12342 14.1761 1.82663 13.993 1.64357C13.81 1.46051 13.5131 1.46054 13.3301 1.64357L12.3259 2.64773C12.1428 2.83076 12.1428 3.12757 12.3259 3.31063C12.5089 3.49367 12.8057 3.49373 12.9888 3.31063Z" fill="white"/>
<path d="M15.1678 5.52289H14.1636C13.9047 5.52289 13.6948 5.73276 13.6948 5.99164C13.6948 6.25051 13.9047 6.46039 14.1636 6.46039H15.1678C15.4266 6.46039 15.6365 6.25051 15.6365 5.99164C15.6365 5.73276 15.4266 5.52289 15.1678 5.52289Z" fill="white"/>
<path d="M9.6449 1.94166C9.90377 1.94166 10.1136 1.73178 10.1136 1.47291V0.46875C10.1136 0.209875 9.90377 0 9.6449 0C9.38602 0 9.17615 0.209875 9.17615 0.46875V1.47291C9.17615 1.73178 9.38602 1.94166 9.6449 1.94166Z" fill="white"/>
<path d="M1.28006 11.6852C1.09715 11.8681 1.097 12.1651 1.28006 12.3481L3.2884 14.3565C3.4714 14.5395 3.76822 14.5396 3.95131 14.3565L4.73681 13.571L2.06559 10.8998L1.28006 11.6852Z" fill="white"/>
<path d="M9.39572 12.0637L6.10425 13.6126L8.35434 15.8627C8.53734 16.0457 8.83419 16.0458 9.01725 15.8627L10.7745 14.1054C10.9576 13.9223 10.9576 13.6256 10.7745 13.4425L9.39572 12.0637Z" fill="white"/>
<path d="M7.46595 1.64358C7.35802 1.53564 7.20427 1.48704 7.05389 1.51326C6.90352 1.53951 6.77536 1.63733 6.71036 1.77545L2.72852 10.2368L5.39973 12.9081L13.8611 8.92623C13.9993 8.86123 14.0971 8.73304 14.1233 8.58267C14.1496 8.43229 14.101 8.27858 13.993 8.17064L7.46595 1.64358Z" fill="white"/>
</g>
<defs>
<clipPath id="clip0_279_1414">
<rect width="16" height="16" fill="white"/>
</clipPath>
</defs>
</svg>
