<svg width="45" height="45" viewBox="0 0 45 45" fill="none" xmlns="http://www.w3.org/2000/svg">
<path d="M2.1875 16.4062C2.72622 16.4062 3.24288 16.1922 3.62381 15.8113C4.00474 15.4304 4.21875 14.9137 4.21875 14.375V4.21875H14.375C14.9137 4.21875 15.4304 4.00474 15.8113 3.62381C16.1922 3.24288 16.4062 2.72622 16.4062 2.1875C16.4062 1.64878 16.1922 1.13212 15.8113 0.75119C15.4304 0.370256 14.9137 0.15625 14.375 0.15625H2.1875C1.64878 0.15625 1.13212 0.370256 0.75119 0.75119C0.370256 1.13212 0.15625 1.64878 0.15625 2.1875V14.375C0.15625 14.9137 0.370256 15.4304 0.75119 15.8113C1.13212 16.1922 1.64878 16.4062 2.1875 16.4062Z" fill="white"/>
<path d="M30.625 4.21875H40.7812V14.375C40.7812 14.9137 40.9953 15.4304 41.3762 15.8113C41.7571 16.1922 42.2738 16.4062 42.8125 16.4062C43.3512 16.4062 43.8679 16.1922 44.2488 15.8113C44.6297 15.4304 44.8438 14.9137 44.8438 14.375V2.1875C44.8438 1.64878 44.6297 1.13212 44.2488 0.75119C43.8679 0.370256 43.3512 0.15625 42.8125 0.15625H30.625C30.0863 0.15625 29.5696 0.370256 29.1887 0.75119C28.8078 1.13212 28.5938 1.64878 28.5938 2.1875C28.5938 2.72622 28.8078 3.24288 29.1887 3.62381C29.5696 4.00474 30.0863 4.21875 30.625 4.21875Z" fill="white"/>
<path d="M14.375 40.7812H4.21875V30.625C4.21875 30.0863 4.00474 29.5696 3.62381 29.1887C3.24288 28.8078 2.72622 28.5938 2.1875 28.5938C1.64878 28.5938 1.13212 28.8078 0.75119 29.1887C0.370256 29.5696 0.15625 30.0863 0.15625 30.625V42.8125C0.15625 43.3512 0.370256 43.8679 0.75119 44.2488C1.13212 44.6297 1.64878 44.8438 2.1875 44.8438H14.375C14.9137 44.8438 15.4304 44.6297 15.8113 44.2488C16.1922 43.8679 16.4062 43.3512 16.4062 42.8125C16.4062 42.2738 16.1922 41.7571 15.8113 41.3762C15.4304 40.9953 14.9137 40.7812 14.375 40.7812Z" fill="white"/>
<path d="M42.8125 28.5938C42.2738 28.5938 41.7571 28.8078 41.3762 29.1887C40.9953 29.5696 40.7812 30.0863 40.7812 30.625V40.7812H30.625C30.0863 40.7812 29.5696 40.9953 29.1887 41.3762C28.8078 41.7571 28.5938 42.2738 28.5938 42.8125C28.5938 43.3512 28.8078 43.8679 29.1887 44.2488C29.5696 44.6297 30.0863 44.8438 30.625 44.8438H42.8125C43.3512 44.8438 43.8679 44.6297 44.2488 44.2488C44.6297 43.8679 44.8438 43.3512 44.8438 42.8125V30.625C44.8438 30.0863 44.6297 29.5696 44.2488 29.1887C43.8679 28.8078 43.3512 28.5938 42.8125 28.5938Z" fill="white"/>
</svg>
