<svg width="16" height="16" viewBox="0 0 16 16" fill="none" xmlns="http://www.w3.org/2000/svg">
<g clip-path="url(#clip0_279_1409)">
<path d="M4.78079 3.23175L0.503446 3.23175C0.225418 3.23175 0 3.45714 0 3.7352L0 6.28717C0 6.56523 0.225418 6.79061 0.503446 6.79061C1.17029 6.79061 1.71282 7.33314 1.71282 8.00002C1.71282 8.6669 1.17029 9.20936 0.503446 9.20936C0.225418 9.20936 0 9.43474 0 9.7128L0 12.2648C0 12.5429 0.225418 12.7683 0.503446 12.7683H4.78079L4.78079 3.23175Z" fill="white"/>
<path d="M15.4966 6.79061C15.7746 6.79061 16 6.56523 16 6.28717V3.7352C16 3.45714 15.7746 3.23175 15.4966 3.23175L5.78772 3.23175L5.78772 12.7683H15.4966C15.7746 12.7683 16 12.5429 16 12.2648V9.71284C16 9.43478 15.7746 9.20939 15.4966 9.20939C14.8297 9.20939 14.2872 8.6669 14.2872 8.00002C14.2872 7.33314 14.8297 6.79061 15.4966 6.79061Z" fill="white"/>
</g>
<defs>
<clipPath id="clip0_279_1409">
<rect width="16" height="16" fill="white"/>
</clipPath>
</defs>
</svg>
